<?xml version="1.0" encoding="utf-8"?>
<!-- Generator: Adobe Illustrator 26.4.1, SVG Export Plug-In . SVG Version: 6.00 Build 0)  -->
<svg version="1.1" id="Layer_1" xmlns="http://www.w3.org/2000/svg" xmlns:xlink="http://www.w3.org/1999/xlink" x="0px" y="0px"
	 viewBox="0 0 1080 720" style="enable-background:new 0 0 1080 720;" xml:space="preserve">
<style type="text/css">
	.st0{display:none;fill:none;stroke:#000000;stroke-miterlimit:10;}
	.st1{display:none;}
	.st2{display:inline;fill:none;stroke:#000000;stroke-miterlimit:10;}
	.st3{display:inline;}
	.st4{fill:none;stroke:#000000;stroke-miterlimit:10;}
	.st5{fill:none;stroke:#FFFFFF;stroke-width:2;stroke-miterlimit:10;}
	.st6{fill:none;stroke:#000000;stroke-width:2;stroke-miterlimit:10;}
	.st7{fill:none;stroke:#000000;stroke-width:0.5;stroke-miterlimit:10;}
	.st8{fill:none;stroke:#000000;stroke-width:0.5;stroke-miterlimit:10;stroke-dasharray:3.1333,3.1333;}
	.st9{font-family:'MyriadPro-Regular';}
	.st10{font-size:21px;}
	.st11{fill:none;stroke:#FFFFFF;stroke-miterlimit:10;}
	.st12{fill:#FFFFFF;}
	.st13{fill:none;stroke:#FFFFFF;stroke-width:0.5;stroke-miterlimit:10;}
	.st14{fill:none;stroke:#FFFFFF;stroke-width:0.5;stroke-miterlimit:10;stroke-dasharray:3.1333,3.1333;}
svg, g, path, polygon, line, rect {
  vector-effect: non-scaling-stroke;
}

</style>
<image style="display:none;overflow:visible;" width="1080" height="720" xlink:href="craft-cardboard-tile.jpg" >
</image>
<path class="st0" d="M658.08,581.51c2.17-1.34,3.74-2.92,5.05-5.38c2.54-4.79,2.05-9.69,1.12-14.48
	c-2.67-13.65-8.24-26.27-14.9-38.39c-6.09-11.09-14.15-20.87-21.46-31.14c-7.95-11.16-15.18-22.75-21.42-34.99
	c-4.95-9.71-7.6-19.96-7.76-30.68c-0.25-16.41-0.5-32.82-0.57-49.23c-0.12-30.57-0.04-61.14-0.03-91.72c0-5.45,0.16-10.9,0.15-16.35
	c-0.04-14.45-0.16-28.91-0.21-43.36c-0.03-10.37,0.23-20.74-0.1-31.1c-0.16-4.92,0.04-9.85-0.06-14.77
	c-0.13-5.99,0-12.01,0.11-18.02c0.06-3.29-0.21-6.61,0.59-9.86c0.13-0.52,0.23-1.57,0.85-1.16c1.79,1.17,2.36-0.13,3.06-1.23
	c0.75-1.17,1.73-2.33,1.36-3.85c-0.76-3.06-2.18-5.31-5.52-6.54c-5.4-1.98-11.02-1.91-16.54-2.51c-8.89-0.97-17.8-0.3-26.67,0.79
	c-3.52,0.43-6.99,1.08-10.37,2.25c-3.09,1.07-4.59,3.27-5.05,6.38c-0.3,2.04,1.63,5.99,3.05,5.64c2.86-0.7,2.27,1.41,2.36,2.63
	c0.2,2.53,0.08,5.09,0.08,7.64c-0.02,7.64,0.09,15.29-0.13,22.93c-0.22,7.47-0.43,14.93-0.29,22.4c0.12,6.07-0.04,12.14,0.11,18.22
	c0.1,3.91-0.22,7.9-0.26,11.84c-0.15,14.91-0.06,29.83-0.06,44.75c0,14.52,0.05,29.04-0.02,43.56c-0.05,8.47-0.43,16.94-0.45,25.41
	c-0.06,25.44-0.06,50.88,0.01,76.33c0.01,4.66-0.58,9.24-1.42,13.77c-1.54,8.3-5.3,15.75-9.3,23.1c-3.31,6.06-7.1,11.72-12.45,16.2
	c-3.11,2.6-6.76,4.54-10.7,3.09c-4.65-1.71-9.29-3.93-12.04-8.48c-0.79-1.31-1.76-2.38-2.81-3.43c-3.21-3.22-6.43-6.42-9.63-9.65
	c-0.63-0.63-1.4-1.19-1.39-2.24c0.02-2.78-2.05-4.53-3.93-5.57c-1.91-1.05-3.07-2.42-4-4.09c-0.81-1.45-1.39-1.6-2.83-0.73
	c-2,1.21-3.07,3.53-5.4,4.25l-5.94-7.91c-1.97-1.72-3.85-3.51-6.08-4.95c-3.71-2.4-7.38-4.76-8.67-9.63
	c-1.6-6.06-3.85-11.94-5.74-17.92c-0.85-2.68-0.86-2.8-3.14-0.99c-2.39,1.9-4.73,3.87-6.96,5.96c-5.62,5.24-11.04,10.68-15.86,16.69
	c-1.2,1.49-1.1,2.42,0.93,2.97c2.87,0.78,5.7,1.68,8.52,2.62c4.39,1.46,8.77,2.93,13.11,4.54c3.02,1.12,3.28,2.74,0.99,5.03
	c-2.86,2.86-5.73,5.71-8.57,8.58c-2.32,2.35,0.25,3.39,1.32,4.83c1.16,1.56,2.14,1.19,3.39-0.06c2.62-2.63,5.17-5.32,8-7.75
	c1.96-1.68,3-0.97,4.13,0.68c0.67,0.98,1.17,1.64,1.65,2.03l0,0.01l1.77,2.06c1.69,1.26,2.91,2.36,4.31,3.16
	c1.8,1.04,1.5,2.07,0.33,3.3c-0.97,1.02-1.99,1.99-2.88,3.07c-0.89,1.07-0.97,1.89,0.61,2.66c1.87,0.91,3.53,2.05,4.48,4.27
	c0.74,1.72,3.45,2.05,4.18,4.17c0.02,0.07,0.5,0.08,0.69-0.02c1.44-0.72,2.13,0.33,2.87,1.21c5.58,6.53,12.16,12.01,18.89,17.24
	c3.98,3.09,6.32,6.95,7.6,11.5c2.36,8.39-0.37,16.16-3.76,23.68c-4.5,9.97-8.48,20.14-9.98,31.01c-0.87,6.28-1.04,12.81,7.02,16.02
	c4.9,1.98,5.71,1.78,12.7,1.82c37.1,0.21,74.2,0.15,111.3,0.15c14,0,28,0.07,42-0.31C653.97,583.35,657.41,581.92,658.08,581.51z"/>
<g class="st1">
	<rect x="440" y="135" class="st2" width="200" height="450"/>
	<rect x="390" y="85" class="st2" width="300" height="550"/>
	<g class="st3">
		<line class="st4" x1="440" y1="135" x2="390" y2="85"/>
		<line class="st4" x1="440" y1="585" x2="390" y2="635"/>
		<line class="st4" x1="640" y1="585" x2="690" y2="635"/>
		<line class="st4" x1="640" y1="135" x2="690" y2="85"/>
	</g>
</g>
<g>
	
		<image style="overflow:visible;opacity:0.5;" width="1780" height="3692" xlink:href="98742510.png"  transform="matrix(0.125 0 0 0.125 45.875 131.25)">
	</image>
	<g>
		<path class="st5" d="M260.51,561.65c-2.67-13.65-8.24-26.27-14.9-38.39c-6.09-11.09-14.15-20.87-21.46-31.14
			c-7.95-11.16-15.18-22.75-21.42-34.99c-4.95-9.71-7.6-19.96-7.76-30.68c-0.25-16.41-0.5-32.82-0.57-49.23
			c-0.12-30.57-0.04-61.14-0.03-91.72c0-5.45,0.16-10.9,0.15-16.35c-0.04-14.45-0.16-28.91-0.21-43.36
			c-0.03-10.37,0.23-20.74-0.1-31.1c-0.16-4.92,0.04-9.85-0.06-14.77c-0.13-5.99,0-12.01,0.11-18.02c0.06-3.29-0.21-6.61,0.59-9.86
			c0.13-0.52,0.23-1.57,0.85-1.16c1.79,1.17,2.36-0.13,3.06-1.23c0.75-1.17,1.73-2.33,1.36-3.85c-0.76-3.06-2.18-5.31-5.52-6.54
			c-5.4-1.98-11.02-1.91-16.54-2.51c-8.89-0.97-17.8-0.3-26.67,0.79c-3.52,0.43-6.99,1.08-10.37,2.25
			c-3.09,1.07-4.59,3.27-5.05,6.38c-0.3,2.04,1.63,5.99,3.05,5.64c2.86-0.7,2.27,1.41,2.36,2.63c0.2,2.53,0.08,5.09,0.08,7.64
			c-0.02,7.64,0.09,15.29-0.13,22.93c-0.22,7.47-0.43,14.93-0.29,22.4c0.12,6.07-0.04,12.14,0.11,18.22
			c0.1,3.91-0.22,7.9-0.26,11.84c-0.15,14.91-0.06,29.83-0.06,44.75c0,14.52,0.05,29.04-0.02,43.56
			c-0.05,8.47-0.43,16.94-0.45,25.41c-0.06,25.44-0.06,50.88,0.01,76.33c0.01,4.66-0.58,9.24-1.42,13.77
			c-1.54,8.3-5.3,15.75-9.3,23.1c-3.31,6.06-7.1,11.72-12.45,16.2c-3.11,2.6-6.76,4.54-10.7,3.09c-4.65-1.71-9.29-3.93-12.04-8.48
			c-0.79-1.31-1.76-2.38-2.81-3.43c-3.21-3.22-6.43-6.42-9.63-9.65c-0.63-0.63-1.4-1.19-1.39-2.24c0.02-2.78-2.05-4.53-3.93-5.57
			c-0.44-0.24-0.84-0.5-1.21-0.78L53.24,475.4c0.34,0.45,0.64,0.96,0.89,1.54c0.74,1.72,3.45,2.05,4.18,4.17
			c0.02,0.07,0.5,0.08,0.69-0.02c1.44-0.72,2.13,0.33,2.87,1.21c5.58,6.53,12.16,12.01,18.89,17.24c3.98,3.09,6.32,6.95,7.6,11.5
			c2.36,8.39-0.37,16.16-3.76,23.68c-4.5,9.97-8.48,20.14-9.98,31.01c-0.87,6.28-1.04,12.81,7.02,16.02
			c4.9,1.98,5.71,1.78,12.7,1.82c37.1,0.21,74.2,0.15,111.3,0.15c14,0,28,0.07,42-0.31c2.6-0.07,6.03-1.5,6.71-1.92
			c2.17-1.34,3.74-2.92,5.05-5.38C261.94,571.34,261.45,566.44,260.51,561.65z"/>
	</g>
</g>
<rect x="352.26" y="110" class="st6" width="250" height="500"/>
<g>
	<g>
		<line class="st4" x1="652.26" y1="118.15" x2="652.26" y2="601.85"/>
		<g>
			<path d="M652.26,119.95l3.6,2.19l0.08-0.12l-2.33-5.88c-0.45-2.05-0.9-4.09-1.35-6.14c-0.45,2.05-0.9,4.09-1.35,6.14l-2.33,5.88
				l0.06,0.12L652.26,119.95z"/>
		</g>
		<g>
			<path d="M652.26,600.05l3.6-2.19l0.08,0.12l-2.33,5.88c-0.45,2.05-0.9,4.09-1.35,6.14c-0.45-2.05-0.9-4.09-1.35-6.14l-2.33-5.88
				l0.06-0.12L652.26,600.05z"/>
		</g>
	</g>
</g>
<g>
	<g>
		<line class="st7" x1="602.26" y1="110" x2="603.76" y2="110"/>
		<line class="st8" x1="606.89" y1="110" x2="649.19" y2="110"/>
		<line class="st7" x1="650.76" y1="110" x2="652.26" y2="110"/>
	</g>
</g>
<g>
	<g>
		<line class="st7" x1="602.26" y1="610" x2="603.76" y2="610"/>
		<line class="st8" x1="606.89" y1="610" x2="649.19" y2="610"/>
		<line class="st7" x1="650.76" y1="610" x2="652.26" y2="610"/>
	</g>
</g>
<text transform="matrix(1 0 0 1 451.0897 654.8253)" class="st9 st10">50 cm</text>
<g>
	<g>
		<line class="st4" x1="360.41" y1="660" x2="594.1" y2="660"/>
		<g>
			<path d="M362.2,660l2.19-3.6l-0.12-0.08l-5.88,2.33c-2.05,0.45-4.09,0.9-6.14,1.35c2.05,0.45,4.09,0.9,6.14,1.35l5.88,2.33
				l0.12-0.06L362.2,660z"/>
		</g>
		<g>
			<path d="M592.31,660l-2.19-3.6l0.12-0.08l5.88,2.33c2.05,0.45,4.09,0.9,6.14,1.35c-2.05,0.45-4.09,0.9-6.14,1.35l-5.88,2.33
				l-0.12-0.06L592.31,660z"/>
		</g>
	</g>
</g>
<g>
	<g>
		<line class="st7" x1="602.26" y1="610" x2="602.26" y2="611.5"/>
		<line class="st8" x1="602.26" y1="614.63" x2="602.26" y2="656.93"/>
		<line class="st7" x1="602.26" y1="658.5" x2="602.26" y2="660"/>
	</g>
</g>
<g>
	<g>
		<line class="st7" x1="352.26" y1="610" x2="352.26" y2="611.5"/>
		<line class="st8" x1="352.26" y1="614.63" x2="352.26" y2="656.93"/>
		<line class="st7" x1="352.26" y1="658.5" x2="352.26" y2="660"/>
	</g>
</g>
<rect x="705.7" y="110" class="st5" width="250" height="500"/>
<g>
	<g>
		<line class="st11" x1="1005.7" y1="118.15" x2="1005.7" y2="601.85"/>
		<g>
			<path class="st12" d="M1005.7,119.95l3.6,2.19l0.08-0.12l-2.33-5.88c-0.45-2.05-0.9-4.09-1.35-6.14
				c-0.45,2.05-0.9,4.09-1.35,6.14l-2.33,5.88l0.06,0.12L1005.7,119.95z"/>
		</g>
		<g>
			<path class="st12" d="M1005.7,600.05l3.6-2.19l0.08,0.12l-2.33,5.88c-0.45,2.05-0.9,4.09-1.35,6.14
				c-0.45-2.05-0.9-4.09-1.35-6.14l-2.33-5.88l0.06-0.12L1005.7,600.05z"/>
		</g>
	</g>
</g>
<g>
	<g>
		<line class="st13" x1="955.7" y1="110" x2="957.2" y2="110"/>
		<line class="st14" x1="960.33" y1="110" x2="1002.63" y2="110"/>
		<line class="st13" x1="1004.2" y1="110" x2="1005.7" y2="110"/>
	</g>
</g>
<g>
	<g>
		<line class="st13" x1="955.7" y1="610" x2="957.2" y2="610"/>
		<line class="st14" x1="960.33" y1="610" x2="1002.63" y2="610"/>
		<line class="st13" x1="1004.2" y1="610" x2="1005.7" y2="610"/>
	</g>
</g>
<text transform="matrix(1 0 0 1 804.5338 654.8253)" class="st12 st9 st10">50 cm</text>
<g>
	<g>
		<line class="st11" x1="713.85" y1="660" x2="947.55" y2="660"/>
		<g>
			<path class="st12" d="M715.65,660l2.19-3.6l-0.12-0.08l-5.88,2.33c-2.05,0.45-4.09,0.9-6.14,1.35c2.05,0.45,4.09,0.9,6.14,1.35
				l5.88,2.33l0.12-0.06L715.65,660z"/>
		</g>
		<g>
			<path class="st12" d="M945.75,660l-2.19-3.6l0.12-0.08l5.88,2.33c2.05,0.45,4.09,0.9,6.14,1.35c-2.05,0.45-4.09,0.9-6.14,1.35
				l-5.88,2.33l-0.12-0.06L945.75,660z"/>
		</g>
	</g>
</g>
<g>
	<g>
		<line class="st13" x1="955.7" y1="610" x2="955.7" y2="611.5"/>
		<line class="st14" x1="955.7" y1="614.63" x2="955.7" y2="656.93"/>
		<line class="st13" x1="955.7" y1="658.5" x2="955.7" y2="660"/>
	</g>
</g>
<g>
	<g>
		<line class="st13" x1="705.7" y1="610" x2="705.7" y2="611.5"/>
		<line class="st14" x1="705.7" y1="614.63" x2="705.7" y2="656.93"/>
		<line class="st13" x1="705.7" y1="658.5" x2="705.7" y2="660"/>
	</g>
</g>
</svg>
