<?xml version="1.0" encoding="utf-8"?>
<!-- Generator: Adobe Illustrator 26.4.1, SVG Export Plug-In . SVG Version: 6.00 Build 0)  -->
<svg version="1.1" id="Layer_1" xmlns="http://www.w3.org/2000/svg" xmlns:xlink="http://www.w3.org/1999/xlink" x="0px" y="0px"
	 viewBox="0 0 521.62 604.34" style="enable-background:new 0 0 521.62 604.34;" xml:space="preserve">
<style type="text/css">
	.st0{fill:none;stroke:#000000;stroke-width:2;stroke-miterlimit:10;}
svg, g, path, polygon, line, rect {
  vector-effect: non-scaling-stroke;
}
</style>
<g>
	<g>
		<path class="st0" d="M263.04,515.01c-2.67-13.65-8.24-26.27-14.9-38.39c-6.09-11.09-14.15-20.87-21.46-31.14
			c-7.95-11.16-15.18-22.75-21.42-34.99c-4.95-9.71-7.6-19.96-7.76-30.68c-0.25-16.41-0.5-32.82-0.57-49.23
			c-0.12-30.57-0.04-61.14-0.03-91.72c0-5.45,0.16-10.9,0.15-16.35c-0.04-14.45-0.16-28.91-0.21-43.36
			c-0.03-10.37,0.23-20.74-0.1-31.1c-0.16-4.92,0.04-9.85-0.06-14.77c-0.13-5.99,0-12.01,0.11-18.02c0.06-3.29-0.21-6.61,0.59-9.86
			c0.13-0.52,0.23-1.57,0.85-1.16c1.79,1.17,2.36-0.13,3.06-1.23c0.75-1.17,1.73-2.33,1.36-3.85c-0.76-3.06-2.18-5.31-5.52-6.54
			c-5.4-1.98-11.02-1.91-16.54-2.51c-8.89-0.97-17.8-0.3-26.67,0.79c-3.52,0.43-6.99,1.08-10.37,2.25
			c-3.09,1.07-4.59,3.27-5.05,6.38c-0.3,2.04,1.63,5.99,3.05,5.64c2.86-0.7,2.27,1.41,2.36,2.63c0.2,2.53,0.08,5.09,0.08,7.64
			c-0.02,7.64,0.09,15.29-0.13,22.93c-0.22,7.47-0.43,14.93-0.29,22.4c0.12,6.07-0.04,12.14,0.11,18.22
			c0.1,3.91-0.22,7.9-0.26,11.84c-0.15,14.91-0.06,29.83-0.06,44.75c0,14.52,0.05,29.04-0.02,43.56
			c-0.05,8.47-0.43,16.94-0.45,25.41c-0.06,25.44-0.06,50.88,0.01,76.33c0.01,4.66-0.58,9.24-1.42,13.77
			c-1.54,8.3-5.3,15.75-9.3,23.1c-3.31,6.06-7.1,11.72-12.45,16.2c-3.11,2.6-6.76,4.54-10.7,3.09c-4.65-1.71-9.29-3.93-12.04-8.48
			c-0.79-1.31-1.76-2.38-2.81-3.43c-3.21-3.22-6.43-6.42-9.63-9.65c-0.63-0.63-1.4-1.19-1.39-2.24c0.02-2.78-2.05-4.53-3.93-5.57
			c-0.44-0.24-0.84-0.5-1.21-0.78l-22.22,21.89c0.34,0.45,0.64,0.96,0.89,1.54c0.74,1.72,3.45,2.05,4.18,4.17
			c0.02,0.07,0.5,0.08,0.69-0.02c1.44-0.72,2.13,0.33,2.87,1.21c5.58,6.53,12.16,12.01,18.89,17.24c3.98,3.09,6.32,6.95,7.6,11.5
			c2.36,8.39-0.37,16.16-3.76,23.68c-4.5,9.97-8.48,20.14-9.98,31.01c-0.87,6.28-1.04,12.81,7.02,16.02
			c4.9,1.98,5.71,1.78,12.7,1.82c37.1,0.21,74.2,0.15,111.3,0.15c14,0,28,0.07,42-0.31c2.6-0.07,6.03-1.5,6.71-1.92
			c2.17-1.34,3.74-2.92,5.05-5.38C264.46,524.7,263.98,519.8,263.04,515.01z"/>
	</g>
	<polygon class="st0" points="397.03,175.12 397.96,175.12 397.96,159.97 412.77,128.31 363.75,128.31 378.56,159.97 378.56,175.12 
		379.5,175.12 379.5,178.1 377.67,178.1 377.67,184.65 381.77,207.53 394.75,207.53 398.86,184.65 398.86,178.1 397.03,178.1 	"/>
	<path class="st0" d="M377.92,334.67v4.45l4,22.88h0.12v85.49l12.43,12.43V362h0.12l4-22.88v-4.45l0.04-0.06h7.75v-5.09
		c0-0.51-0.7-0.91-1.57-0.91s-1.57-0.41-1.57-0.92v-18.76h1.6v-6.3h-33.2v6.3h1.6v18.76c0,0.51-0.7,0.92-1.57,0.92
		s-1.57,0.41-1.57,0.91v5.09h7.75L377.92,334.67z"/>
</g>
</svg>
