<?xml version="1.0" encoding="utf-8"?>
<!-- Generator: Adobe Illustrator 26.4.1, SVG Export Plug-In . SVG Version: 6.00 Build 0)  -->
<svg version="1.1" id="Layer_1" xmlns="http://www.w3.org/2000/svg" xmlns:xlink="http://www.w3.org/1999/xlink" x="0px" y="0px"
	 viewBox="0 0 521.62 604.34" style="enable-background:new 0 0 521.62 604.34;" xml:space="preserve">
<style type="text/css">
	.st0{fill:none;stroke:#000000;stroke-miterlimit:10;}
	.st1{fill:none;stroke:#000000;stroke-width:0.5;stroke-miterlimit:10;}
	.st2{fill:none;stroke:#000000;stroke-width:0.5;stroke-miterlimit:10;stroke-dasharray:2.9906,2.9906;}
	.st3{fill:none;stroke:#000000;stroke-width:0.5;stroke-miterlimit:10;stroke-dasharray:3.0241,3.0241;}
	.st4{font-family:'Roboto';}
	.st5{font-size:16px;}
	.st6{fill:none;stroke:#000000;stroke-width:0.5;stroke-miterlimit:10;stroke-dasharray:3.0401,3.0401;}
	.st7{fill:none;stroke:#000000;stroke-width:0.5;stroke-miterlimit:10;stroke-dasharray:2.9574,2.9574;}
	.st8{fill:none;stroke:#000000;stroke-width:0.5;stroke-miterlimit:10;stroke-dasharray:2.9441,2.9441;}
	.st9{fill:none;stroke:#000000;stroke-width:0.5;stroke-miterlimit:10;stroke-dasharray:2.9641,2.9641;}
svg, g, path, polygon, line, rect {
  vector-effect: non-scaling-stroke;
}

</style>
<g>
	<g>
		<line class="st0" x1="302.07" y1="97.79" x2="302.07" y2="528.94"/>
		<g>
			<path d="M302.07,99.58l3.6,2.19l0.08-0.12l-2.33-5.88c-0.45-2.05-0.9-4.09-1.35-6.14c-0.45,2.05-0.9,4.09-1.35,6.14l-2.33,5.88
				l0.06,0.12L302.07,99.58z"/>
		</g>
		<g>
			<path d="M302.07,527.15l3.6-2.19l0.08,0.12l-2.33,5.88c-0.45,2.05-0.9,4.09-1.35,6.14c-0.45-2.05-0.9-4.09-1.35-6.14l-2.33-5.88
				l0.06-0.12L302.07,527.15z"/>
		</g>
	</g>
</g>
<g>
	<g>
		<line class="st1" x1="170.48" y1="89.63" x2="171.98" y2="89.63"/>
		<line class="st2" x1="174.97" y1="89.63" x2="299.08" y2="89.63"/>
		<line class="st1" x1="300.57" y1="89.63" x2="302.07" y2="89.63"/>
	</g>
</g>
<g>
	<g>
		<line class="st1" x1="229.52" y1="537.1" x2="231.02" y2="537.1"/>
		<line class="st3" x1="234.04" y1="537.1" x2="299.06" y2="537.1"/>
		<line class="st1" x1="300.57" y1="537.1" x2="302.07" y2="537.1"/>
	</g>
</g>
<text transform="matrix(1 0 0 1 148.6085 571.7449)" class="st4 st5">19 cm</text>
<g>
	<g>
		<line class="st0" x1="255.64" y1="578.3" x2="85.31" y2="578.3"/>
		<g>
			<path d="M253.85,578.3l-2.19,3.6l0.12,0.08l5.88-2.33c2.05-0.45,4.09-0.9,6.14-1.35c-2.05-0.45-4.09-0.9-6.14-1.35l-5.88-2.33
				l-0.12,0.06L253.85,578.3z"/>
		</g>
		<g>
			<path d="M87.11,578.3l2.19,3.6l-0.12,0.08l-5.88-2.33c-2.05-0.45-4.09-0.9-6.14-1.35c2.05-0.45,4.09-0.9,6.14-1.35l5.88-2.33
				l0.12,0.06L87.11,578.3z"/>
		</g>
	</g>
</g>
<g>
	<g>
		<line class="st1" x1="263.8" y1="523.62" x2="263.8" y2="525.12"/>
		<line class="st6" x1="263.8" y1="528.16" x2="263.8" y2="575.28"/>
		<line class="st1" x1="263.8" y1="576.8" x2="263.8" y2="578.3"/>
	</g>
</g>
<g>
	<g>
		<line class="st1" x1="77.16" y1="523.62" x2="77.16" y2="525.12"/>
		<line class="st6" x1="77.16" y1="528.16" x2="77.16" y2="575.28"/>
		<line class="st1" x1="77.16" y1="576.8" x2="77.16" y2="578.3"/>
	</g>
</g>
<text transform="matrix(1 0 0 1 153.1007 43.7706)" class="st4 st5">5 cm</text>
<g>
	<g>
		<line class="st0" x1="189.23" y1="52.85" x2="151.73" y2="52.85"/>
		<g>
			<path d="M187.43,52.85l-2.19,3.6l0.12,0.08l5.88-2.33c2.05-0.45,4.09-0.9,6.14-1.35c-2.05-0.45-4.09-0.9-6.14-1.35l-5.88-2.33
				l-0.12,0.06L187.43,52.85z"/>
		</g>
		<g>
			<path d="M153.52,52.85l2.19,3.6l-0.12,0.08l-5.88-2.33c-2.05-0.45-4.09-0.9-6.14-1.35c2.05-0.45,4.09-0.9,6.14-1.35l5.88-2.33
				l0.12,0.06L153.52,52.85z"/>
		</g>
	</g>
</g>
<g>
	<g>
		<line class="st1" x1="197.38" y1="117.96" x2="197.38" y2="116.46"/>
		<line class="st7" x1="197.38" y1="113.5" x2="197.38" y2="55.83"/>
		<line class="st1" x1="197.38" y1="54.35" x2="197.38" y2="52.85"/>
	</g>
</g>
<g>
	<g>
		<line class="st1" x1="143.58" y1="117.96" x2="143.58" y2="116.46"/>
		<line class="st7" x1="143.58" y1="113.5" x2="143.58" y2="55.83"/>
		<line class="st1" x1="143.58" y1="54.35" x2="143.58" y2="52.85"/>
	</g>
</g>
<text transform="matrix(6.123234e-17 -1 1 6.123234e-17 296.0543 324.7772)" class="st4 st5">45 cm</text>
<text transform="matrix(1 0 0 1 373.8268 239.5747)" class="st4 st5">1/2 “</text>
<text transform="matrix(1 0 0 1 373.8268 239.5747)" class="st4 st5">1/2 “</text>
<text transform="matrix(1 0 0 1 377.3854 490.0954)" class="st4 st5">1/2 “</text>
<g>
	<g>
		<line class="st0" x1="459.72" y1="310.79" x2="459.72" y2="451.76"/>
		<g>
			<path d="M459.72,312.59l3.6,2.19l0.08-0.12l-2.33-5.88c-0.45-2.05-0.9-4.09-1.35-6.14c-0.45,2.05-0.9,4.09-1.35,6.14l-2.33,5.88
				l0.06,0.12L459.72,312.59z"/>
		</g>
		<g>
			<path d="M459.72,449.97l3.6-2.19l0.08,0.12l-2.33,5.88c-0.45,2.05-0.9,4.09-1.35,6.14c-0.45-2.05-0.9-4.09-1.35-6.14l-2.33-5.88
				l0.06-0.12L459.72,449.97z"/>
		</g>
	</g>
</g>
<g>
	<g>
		<line class="st1" x1="383.12" y1="302.64" x2="384.62" y2="302.64"/>
		<line class="st8" x1="387.56" y1="302.64" x2="456.75" y2="302.64"/>
		<line class="st1" x1="458.22" y1="302.64" x2="459.72" y2="302.64"/>
	</g>
</g>
<g>
	<g>
		<line class="st1" x1="394.48" y1="459.92" x2="395.98" y2="459.92"/>
		<line class="st9" x1="398.94" y1="459.92" x2="456.74" y2="459.92"/>
		<line class="st1" x1="458.22" y1="459.92" x2="459.72" y2="459.92"/>
	</g>
</g>
<text transform="matrix(6.123234e-17 -1 1 6.123234e-17 453.7019 403.5614)" class="st4 st5">12 cm</text>
</svg>
